<svg width="29" height="28" viewBox="0 0 29 28" fill="none" xmlns="http://www.w3.org/2000/svg">
<path d="M10.9945 6.86748L11.4358 9.07419H19.2681L18.3217 5.28874C18.2671 5.07028 18.0491 4.93443 17.8289 4.98161L11.3166 6.37712C11.0932 6.42499 10.9497 6.64345 10.9945 6.86748Z" fill="#979797"/>
<path fill-rule="evenodd" clip-rule="evenodd" d="M16.2025 4.47582L16.546 3.21639C16.6064 2.99485 16.8406 2.86955 17.0584 2.94217L22.5717 4.77992C22.77 4.84601 22.8839 5.05363 22.8332 5.2564L21.9607 8.74653C21.9134 8.93578 21.7365 9.0633 21.542 9.04834L20.0949 8.93702L19.1322 5.08623C18.9683 4.43082 18.3144 4.02327 17.6539 4.16482L16.2025 4.47582ZM15.2068 8.23886C15.2007 8.18908 15.204 8.13711 15.2182 8.08515L15.7076 6.29069L17.6091 5.88322L18.198 8.23886H15.2068Z" fill="#979797"/>
<path fill-rule="evenodd" clip-rule="evenodd" d="M10.5243 8.77661L10.1752 7.03128C10.0408 6.35919 10.4712 5.70379 11.1414 5.56018L15.2406 4.6818L15.0183 2.37191C15.0052 2.26096 14.9485 2.15963 14.8607 2.09052C14.7728 2.02141 14.6618 1.98981 14.5504 2.0029L7.50461 2.8357C7.2737 2.8631 7.10857 3.07242 7.13584 3.30357L7.77575 8.71818C7.80118 8.93256 7.98297 9.09016 8.19364 9.09016C9.00674 8.77315 9.78225 8.71973 10.5243 8.77661ZM15.4017 6.35608L11.8944 7.10763L12.1206 8.23871H15.5828L15.4017 6.35608Z" fill="#979797"/>
<path d="M10.991 6.85016L11.4358 9.07401H19.268L18.3175 5.27195C18.2652 5.06274 18.0565 4.93266 17.8456 4.97784L11.2994 6.3806C11.0855 6.42644 10.9481 6.63564 10.991 6.85016Z" fill="#979797"/>
<path fill-rule="evenodd" clip-rule="evenodd" d="M23.7994 8.30249C24.0238 8.30249 24.2086 8.47823 24.2202 8.70211L25.0628 25.1312C25.0686 25.2466 25.0269 25.3593 24.9475 25.4429C24.8675 25.5266 24.7571 25.574 24.6417 25.574H4.42128C4.30576 25.574 4.19543 25.5265 4.11583 25.4429C4.03635 25.3593 3.99463 25.2465 4.00055 25.1312L4.84311 8.70211C4.85471 8.47811 5.03959 8.30249 5.26396 8.30249H23.7994ZM16.4272 11.2508C16.4272 10.5539 16.994 9.98701 17.6909 9.98701C18.3879 9.98701 18.9547 10.5539 18.9547 11.2508C18.9547 11.8001 18.6026 12.2686 18.1121 12.4424V13.9888C18.1121 15.9632 16.5059 17.5694 14.5315 17.5694C12.5571 17.5694 10.9508 15.9632 10.9508 13.9888V12.4424C10.4604 12.2685 10.1083 11.8001 10.1083 11.2508C10.1083 10.5539 10.6752 9.98701 11.3721 9.98701C12.069 9.98701 12.6359 10.5539 12.6359 11.2508C12.6359 11.8001 12.2837 12.2686 11.7933 12.4424V13.9887C11.7933 15.4985 13.0216 16.7269 14.5315 16.7269C16.0414 16.7269 17.2697 15.4984 17.2697 13.9887V12.4424C16.7793 12.2686 16.4272 11.8001 16.4272 11.2508ZM18.0558 11.4613C17.9829 11.3354 17.8468 11.2506 17.6909 11.2506H17.6585C17.5145 11.2506 17.3872 11.323 17.3113 11.4333C17.2846 11.3781 17.2697 11.3162 17.2697 11.2509C17.2697 11.0186 17.4587 10.8297 17.6909 10.8297C17.9232 10.8297 18.1122 11.0186 18.1122 11.2509C18.1122 11.3275 18.0916 11.3993 18.0558 11.4613ZM11.7369 11.4614C11.7728 11.3994 11.7933 11.3275 11.7933 11.2509C11.7933 11.0186 11.6044 10.8297 11.3721 10.8297C11.1398 10.8297 10.9509 11.0186 10.9509 11.2509C10.9509 11.3275 10.9714 11.3993 11.0073 11.4613C11.0801 11.3354 11.2163 11.2507 11.3721 11.2507C11.5279 11.2507 11.664 11.3355 11.7369 11.4614Z" fill="#979797"/>
</svg>
